<?xml version="1.0" encoding="utf-8"?>
<svg viewBox="0 0 15 15" width="15" height="15" style="enable-background:new 0 0 30.239 30.239;" xmlns="http://www.w3.org/2000/svg">
  <g transform="matrix(1, 0, 0, 1, 0, -4.440892098500626e-16)">
    <path d="M 10.018 1.717 C 7.729 -0.572 4.005 -0.572 1.717 1.717 C -0.571 4.005 -0.571 7.729 1.717 10.018 C 3.754 12.055 6.928 12.273 9.216 10.683 C 9.264 10.91 9.373 11.128 9.551 11.304 L 12.883 14.637 C 13.369 15.122 14.154 15.122 14.638 14.637 C 15.123 14.152 15.123 13.368 14.638 12.883 L 11.304 9.55 C 11.128 9.375 10.911 9.263 10.683 9.216 C 12.275 6.928 12.057 3.755 10.018 1.717 Z M 8.966 8.966 C 7.258 10.674 4.477 10.674 2.769 8.966 C 1.062 7.258 1.062 4.478 2.769 2.769 C 4.477 1.061 7.258 1.061 8.966 2.769 C 10.674 4.478 10.674 7.258 8.966 8.966 Z" fill="#b9b9b9"/>
  </g>
</svg>